HIERARCHY
ROOT Hips
{
  OFFSET 0 89.5177 0.535
  CHANNELS 6 Xposition Yposition Zposition Zrotation Xrotation Yrotation
  JOINT Spine
  {
    OFFSET 12.0259 -0.162855 1.69034e-005
    CHANNELS 3 Zrotation Xrotation Yrotation
    JOINT Spine1
    {
      OFFSET 15.3169 -0.0121922 0
      CHANNELS 3 Zrotation Xrotation Yrotation
      JOINT Spine2
      {
        OFFSET 15.3176 -0.0121908 0
        CHANNELS 3 Zrotation Xrotation Yrotation
        JOINT Neck
        {
          OFFSET 19.9142 1.56338 0
          CHANNELS 3 Zrotation Xrotation Yrotation
          JOINT Head
          {
            OFFSET 6.92651 0 0
            CHANNELS 3 Zrotation Xrotation Yrotation
            End Site
            {
              OFFSET 20.7666 0 0
            }
          }
          JOINT LeftShoulder
          {
            OFFSET -6.20654 0.708824 7.28219
            CHANNELS 3 Zrotation Xrotation Yrotation
            JOINT LeftArm
            {
              OFFSET 14.108 0 -1.52588e-005
              CHANNELS 3 Zrotation Xrotation Yrotation
              JOINT LeftForeArm
              {
                OFFSET 28.5802 0 0
                CHANNELS 3 Zrotation Xrotation Yrotation
                JOINT LeftHand
                {
                  OFFSET 27.092 0 0
                  CHANNELS 3 Zrotation Xrotation Yrotation
                  End Site
                  {
                    OFFSET 9.55928 -0.186424 0.145352
                  }
                }
              }
            }
          }
          JOINT RightShoulder
          {
            OFFSET -6.20654 0.708866 -7.28218
            CHANNELS 3 Zrotation Xrotation Yrotation
            JOINT RightArm
            {
              OFFSET 14.108 0 1.52588e-005
              CHANNELS 3 Zrotation Xrotation Yrotation
              JOINT RightForeArm
              {
                OFFSET 28.5802 0 0
                CHANNELS 3 Zrotation Xrotation Yrotation
                JOINT RightHand
                {
                  OFFSET 27.092 0 0
                  CHANNELS 3 Zrotation Xrotation Yrotation
                  End Site
                  {
                    OFFSET 9.55929 -0.186417 -0.145354
                  }
                }
              }
            }
          }
        }
      }
    }
  }
  JOINT LeftUpLeg
  {
    OFFSET 0.005 -0.535 8.837
    CHANNELS 3 Zrotation Xrotation Yrotation
    JOINT LeftLeg
    {
      OFFSET 39.9035 0 0
      CHANNELS 3 Zrotation Xrotation Yrotation
      JOINT LeftFoot
      {
        OFFSET 39.6689 0 0
        CHANNELS 3 Zrotation Xrotation Yrotation
        JOINT LeftToe
        {
          OFFSET 10.1624 13.6296 0
          CHANNELS 3 Zrotation Xrotation Yrotation
          End Site
          {
            OFFSET 8.38147 0 0
          }
        }
      }
    }
  }
  JOINT RightUpLeg
  {
    OFFSET 0.005 -0.535 -8.837
    CHANNELS 3 Zrotation Xrotation Yrotation
    JOINT RightLeg
    {
      OFFSET 39.9035 0 0
      CHANNELS 3 Zrotation Xrotation Yrotation
      JOINT RightFoot
      {
        OFFSET 39.6689 0 0
        CHANNELS 3 Zrotation Xrotation Yrotation
        JOINT RightToe
        {
          OFFSET 10.1624 13.6296 0
          CHANNELS 3 Zrotation Xrotation Yrotation
          End Site
          {
            OFFSET 8.38147 0 0
          }
        }
      }
    }
  }
}
MOTION
Frames:	6
Frame Time:	0.0333333
321.221 84.3121 318.577 -53.5889 -77.8328 -139.358 6.22885 0.193865 -1.55011 12.4607 0.218837 -3.11203 12.4607 0.218836 -3.11204 -8.3043e-012 -9.0191e-006 -5.27751e-005 -13.2123 18.6602 -4.93811 -178.703 -3.71106 -70.7124 -0.950667 10.8341 50.0636 -66.7165 -7.95139e-015 -3.18055e-015 -58.9091 -50.8337 -57.577 -178.765 5.88984 78.1374 -17.2715 11.9191 -47.4787 -82.9881 2.5842e-015 1.59028e-015 -25.611 51.8232 30.3899 -14.7554 11.2416 -167.464 -31.3718 -3.18055e-015 2.98177e-015 7.27645 4.499 -11.4593 90 -6.21202e-017 3.97569e-016 -3.69083 -9.39538 156.98 -31.9664 3.18056e-015 4.77083e-015 21.9521 -1.17886 12.3027 90 -9.93923e-017 3.18055e-015 
323.749 84.6481 319.747 -58.3345 -78.0796 -144.69 6.09504 0.27192 -1.52901 12.1953 0.380366 -3.07818 12.1953 0.380365 -3.07819 -8.3043e-012 -9.0191e-006 -5.27751e-005 -13.6297 18.1039 -4.83201 -178.604 -3.89642 -70.2691 -1.33601 11.2025 49.6985 -65.4491 3.18055e-015 3.18055e-015 -57.8853 -50.9512 -56.5264 -178.877 5.44795 78.3354 -18.072 12.0594 -48.3497 -81.8653 -3.18055e-015 3.18055e-015 -26.9687 51.5144 31.5256 -13.9889 9.39978 -166.308 -27.7358 7.95139e-016 -1.19271e-015 6.30849 2.8061 -8.38775 90 9.28697e-016 -0 -4.1131 -9.81084 159.232 -30.3043 0 -0 21.0686 -2.05572 14.62 90 2.88155e-020 -3.18055e-015 
325.96 85.2153 320.892 -60.5865 -78.6102 -147.454 6.06124 0.303031 -1.4688 12.1284 0.449679 -2.96132 12.1284 0.449679 -2.96133 -8.3043e-012 -9.0191e-006 -5.27751e-005 -14.3739 17.3505 -4.77626 -178.585 -3.87993 -69.9501 -1.86579 11.1395 49.7215 -64.9191 -3.18055e-015 4.77083e-015 -57.2332 -50.8953 -55.7858 -178.907 5.27196 78.2658 -18.7372 12.0868 -48.7356 -80.528 -7.95139e-015 1.59028e-015 -28.08 51.3551 32.5122 -11.2748 4.52759 -166.551 -22.37 1.98785e-016 -5.2181e-015 5.11538 1.71087 -6.35231 90 -1.31074e-015 -3.97569e-016 -5.72293 -11.8682 161.307 -30.6035 0 -0 20.7773 -3.17778 12.5735 90 0 -0 
327.949 85.8476 321.864 -60.7064 -78.9535 -147.46 6.07032 0.287602 -1.48315 12.1462 0.417158 -2.98834 12.1462 0.417158 -2.98834 -8.30112e-012 -9.0191e-006 -5.27751e-005 -14.727 16.476 -4.1564 -178.728 -3.54068 -70.2237 -2.21508 11.2796 50.7428 -65.1994 3.18055e-015 1.59028e-015 -57.1108 -50.8667 -55.6626 -178.999 4.95093 78.5553 -18.8825 11.6719 -49.1586 -79.013 6.75868e-015 -4.77083e-015 -29.0751 50.9806 33.1858 -6.7722 -1.53361 -167.697 -15.3569 1.59028e-015 -5.81445e-015 5.4566 3.70174 -9.2064 90 -1.09332e-015 -0 -5.76844 -12.6714 162.907 -29.8238 -3.18056e-015 -0 20.2166 -3.22254 10.8144 90 -7.58303e-021 -0 
329.645 86.23 322.684 -58.6806 -80.0226 -144.58 6.06887 0.137606 -1.62407 12.1392 0.103194 -3.2535 12.1392 0.103193 -3.25351 -8.3043e-012 -9.0191e-006 -5.27751e-005 -14.7779 15.2154 -3.2171 -178.795 -3.43632 -70.6639 -3.50189 11.3323 51.425 -66.1982 0 1.59028e-015 -56.4969 -51.1194 -55.09 -178.978 4.98984 78.4139 -18.6784 11.0874 -49.4718 -78.1448 2.38542e-015 -1.59028e-015 -29.0747 50.4062 32.976 -7.93127 -0.908116 -169.266 -17.3572 -1.59028e-015 -2.73329e-015 8.29905 5.79767 -12.6372 90 0 -1.59028e-015 -6.00635 -12.8789 163.544 -30.0156 -3.18056e-015 -3.18056e-015 20.4108 -2.35741 9.38061 90 6.06643e-021 -0 
330.837 86.528 323.256 -47.2405 -81.6626 -132.627 6.18379 -0.121307 -1.58516 12.362 -0.412102 -3.14796 12.362 -0.412103 -3.14797 -8.3043e-012 -9.0191e-006 -5.27751e-005 -14.4333 13.4532 -2.837 -179.03 -2.83537 -71.1092 -5.15372 11.4721 51.8875 -67.4602 3.18055e-015 -1.59028e-015 -55.1241 -50.873 -53.4512 -178.94 5.13363 78.3201 -17.0283 10.4417 -50.3021 -78.0234 9.14409e-015 3.18055e-015 -28.9857 50.1556 32.8647 -10.9199 2.9334 -170.954 -24.3601 0 -3.35449e-016 10.3325 7.15785 -15.7011 90 2.73329e-016 -1.59028e-015 -5.29354 -14.8088 163.836 -29.5694 3.18056e-015 -0 20.4542 -1.85786 8.43306 90 -9.85794e-021 -0 
